<?xml version="1.0" encoding="UTF-8"?><svg id="Layer_1" xmlns="http://www.w3.org/2000/svg" viewBox="0 0 640 310"><defs><style>.cls-1{fill:none;stroke:#10162f;stroke-linecap:round;stroke-linejoin:round;}.cls-2{fill:#ffd300;}.cls-2,.cls-3,.cls-4,.cls-5,.cls-6,.cls-7{stroke-width:0px;}.cls-2,.cls-3,.cls-5,.cls-6{fill-rule:evenodd;}.cls-3{fill:#aee938;}.cls-4{fill:#000;}.cls-5{fill:#ff8c00;}.cls-6{fill:#66c3ff;}.cls-7{fill:#10162f;}</style></defs><g id="MVC-process"><polygon id="Fill-2" class="cls-6" points="265 81.33 348 81.33 348 32 265 32 265 81.33"/><polygon id="Fill-2-Copy-3" class="cls-3" points="268 277.33 345 277.33 345 228 268 228 268 277.33"/><polygon id="Fill-2-Copy" class="cls-5" points="186 179.33 263 179.33 263 130 186 130 186 179.33"/><polygon id="Fill-2-Copy-2" class="cls-2" points="338 179.33 453 179.33 453 130 338 130 338 179.33"/><path id="Stroke-3" class="cls-7" d="M348.5,31.5h-84v50.33h84V31.5ZM347.5,32.5v48.33h-82v-48.33h82Z"/><path id="Stroke-3-Copy-3" class="cls-7" d="M345.5,227.5h-78v50.33h78v-50.33ZM344.5,228.5v48.33h-76v-48.33h76Z"/><path id="Stroke-3-Copy" class="cls-7" d="M263.5,129.5h-78v50.33h78v-50.33ZM262.5,130.5v48.33h-76v-48.33h76Z"/><path id="Stroke-3-Copy-2" class="cls-7" d="M453.5,129.5h-116v50.33h116v-50.33ZM452.5,130.5v48.33h-114v-48.33h114Z"/><g id="MODEL"><polygon id="M" class="cls-4" points="294.06 58.5 295.12 54.68 295.12 61 296.07 61 296.07 53.75 294.58 53.75 293.58 57.46 292.58 53.75 291.09 53.75 291.09 61 292.04 61 292.04 54.68 293.1 58.5 294.06 58.5"/><path id="O" class="cls-4" d="M300.04,53.62c-1.81,0-2.71,1.56-2.71,3.75s.9,3.76,2.71,3.76,2.71-1.58,2.71-3.76-.9-3.75-2.71-3.75ZM300.04,54.5c1.2,0,1.73,1.04,1.73,2.87s-.53,2.88-1.73,2.88-1.73-1.05-1.73-2.88.54-2.87,1.73-2.87Z"/><path id="D" class="cls-4" d="M308.2,57.37c0,2.46-1.43,2.73-2.78,2.73h-.26v-5.45h.26c1.35,0,2.78.25,2.78,2.72ZM304.21,53.75v7.25h1.24c2.06,0,3.72-.87,3.72-3.63s-1.66-3.62-3.72-3.62h-1.24Z"/><polygon id="E" class="cls-4" points="310.85 61 315.17 61 315.17 60.1 311.8 60.1 311.8 57.71 314.97 57.71 314.97 56.81 311.8 56.81 311.8 54.65 315.17 54.65 315.17 53.75 310.85 53.75 310.85 61"/><polygon id="L" class="cls-4" points="318.39 53.75 317.44 53.75 317.44 61 321.95 61 321.95 60.1 318.39 60.1 318.39 53.75"/></g><g id="USER"><path id="U" class="cls-4" d="M294.37,249.75v4.3c0,2.26.62,3.08,2.43,3.08s2.45-1.04,2.45-3.16v-4.22h-.95v4.3c0,1.43-.25,2.2-1.5,2.2s-1.48-.67-1.48-2.09v-4.41h-.95Z"/><path id="S" class="cls-4" d="M302.69,253.58l.79.19c.79.18,1.36.52,1.36,1.27,0,.83-.74,1.21-1.46,1.21-.93,0-1.61-.54-1.71-1.51h-.94c.08,1.44,1.15,2.39,2.62,2.39s2.45-.81,2.45-2.16-1.02-1.89-2.19-2.15l-.72-.16c-.58-.13-1.05-.44-1.05-1.08,0-.75.69-1.08,1.35-1.08s1.41.29,1.52,1.16h.94c-.16-1.44-1.29-2.04-2.41-2.04-1.3,0-2.38.74-2.38,1.99,0,1.15.88,1.76,1.83,1.97Z"/><polygon id="E-2" class="cls-4" points="307.62 257 311.94 257 311.94 256.1 308.57 256.1 308.57 253.71 311.74 253.71 311.74 252.81 308.57 252.81 308.57 250.65 311.94 250.65 311.94 249.75 307.62 249.75 307.62 257"/><path id="R" class="cls-4" d="M317.77,257h1.08l-1.54-3.24c.79-.25,1.31-.81,1.31-1.94,0-1.73-1.22-2.07-2.8-2.07h-1.77v7.25h.95v-3.05h.82c.18,0,.36,0,.53,0l1.42,3.06ZM315.93,250.65c.96,0,1.71.07,1.71,1.19s-.75,1.21-1.71,1.21h-.93v-2.4h.93Z"/></g><g id="VIEW"><polygon id="V" class="cls-7" points="214.3 159 215.31 159 217.59 151.75 216.57 151.75 214.8 157.73 213.04 151.75 212.02 151.75 214.3 159"/><polygon id="I" class="cls-7" points="218.96 152.65 220.79 152.65 220.79 158.1 218.96 158.1 218.96 159 223.57 159 223.57 158.1 221.74 158.1 221.74 152.65 223.57 152.65 223.57 151.75 218.96 151.75 218.96 152.65"/><polygon id="E-3" class="cls-7" points="225.62 159 229.94 159 229.94 158.1 226.57 158.1 226.57 155.71 229.74 155.71 229.74 154.81 226.57 154.81 226.57 152.65 229.94 152.65 229.94 151.75 225.62 151.75 225.62 159"/><polygon id="W" class="cls-7" points="234.7 153.96 233.67 153.96 232.87 157.62 232.34 151.75 231.39 151.75 232.11 159 233.35 159 234.19 155.22 235.03 159 236.26 159 236.99 151.75 236.04 151.75 235.5 157.62 234.7 153.96"/></g><g id="CONTROLLER"><path id="C" class="cls-7" d="M368.03,156.75c-.13.87-.59,1.5-1.51,1.5-1.11,0-1.68-1.1-1.68-2.89s.61-2.86,1.66-2.86c.92,0,1.37.72,1.49,1.55h.97c-.24-1.47-1.18-2.44-2.43-2.44-1.73,0-2.67,1.5-2.67,3.75s.83,3.77,2.6,3.77c1.31,0,2.27-.83,2.52-2.38h-.95Z"/><path id="O-2" class="cls-7" d="M372.89,151.62c-1.81,0-2.71,1.56-2.71,3.75s.9,3.76,2.71,3.76,2.71-1.58,2.71-3.76-.9-3.75-2.71-3.75ZM372.89,152.5c1.2,0,1.73,1.04,1.73,2.87s-.53,2.88-1.73,2.88-1.73-1.05-1.73-2.88.54-2.87,1.73-2.87Z"/><polygon id="N" class="cls-7" points="381.69 159 381.69 151.75 380.74 151.75 380.74 157.92 378.42 151.75 377 151.75 377 159 377.95 159 377.95 152.81 380.27 159 381.69 159"/><polygon id="T" class="cls-7" points="385.33 159 386.28 159 386.28 152.65 388.46 152.65 388.46 151.75 383.15 151.75 383.15 152.65 385.33 152.65 385.33 159"/><path id="R-2" class="cls-7" d="M393.85,159h1.08l-1.54-3.24c.79-.25,1.31-.81,1.31-1.94,0-1.73-1.22-2.07-2.8-2.07h-1.77v7.25h.95v-3.05h.82c.18,0,.36,0,.53-.01l1.42,3.06ZM392.01,152.65c.96,0,1.71.07,1.71,1.19s-.75,1.21-1.71,1.21h-.93v-2.4h.93Z"/><path id="O-3" class="cls-7" d="M398.73,151.62c-1.81,0-2.71,1.56-2.71,3.75s.9,3.76,2.71,3.76,2.71-1.58,2.71-3.76-.9-3.75-2.71-3.75ZM398.73,152.5c1.2,0,1.73,1.04,1.73,2.87s-.53,2.88-1.73,2.88-1.73-1.05-1.73-2.88.54-2.87,1.73-2.87Z"/><polygon id="L-2" class="cls-7" points="404.16 151.75 403.21 151.75 403.21 159 407.72 159 407.72 158.1 404.16 158.1 404.16 151.75"/><polygon id="L-3" class="cls-7" points="410.62 151.75 409.67 151.75 409.67 159 414.18 159 414.18 158.1 410.62 158.1 410.62 151.75"/><polygon id="E-4" class="cls-7" points="416 159 420.32 159 420.32 158.1 416.95 158.1 416.95 155.71 420.12 155.71 420.12 154.81 416.95 154.81 416.95 152.65 420.32 152.65 420.32 151.75 416 151.75 416 159"/><path id="R-3" class="cls-7" d="M426.15,159h1.08l-1.54-3.24c.79-.25,1.31-.81,1.31-1.94,0-1.73-1.22-2.07-2.8-2.07h-1.77v7.25h.95v-3.05h.82c.18,0,.36,0,.53-.01l1.42,3.06ZM424.31,152.65c.96,0,1.71.07,1.71,1.19s-.75,1.21-1.71,1.21h-.93v-2.4h.93Z"/></g><g id="Group"><path id="Shape" class="cls-1" d="M265,57h-33.07c-3.79,0-6.89,3.1-6.89,6.89v21.56M225.03,106.99v17.88"/><polyline id="Stroke-3-2" class="cls-1" points="219 119.69 225.03 125.73 231.06 119.69"/></g><g id="Group-5-Copy"><path id="Shape-2" class="cls-1" d="M224.4,179.6v23.01M224.4,224.14v21.18c0,3.79,3.1,6.89,6.89,6.89h33.11"/><polyline id="Stroke-3-3" class="cls-1" points="259.22 258.25 265.25 252.22 259.22 246.19"/></g><g id="Group-5-Copy-2"><path id="Shape-3" class="cls-1" d="M395.5,130v-23.01M395.5,85.46v-21.18c0-3.79-3.1-6.89-6.89-6.89h-36.11"/><polyline id="Stroke-3-4" class="cls-1" points="357.68 51.35 351.65 57.38 357.68 63.42"/></g><g id="Manipulates"><polygon id="M-2" class="cls-7" points="370.04 97 370.89 93.94 370.89 99 371.65 99 371.65 93.2 370.46 93.2 369.66 96.17 368.86 93.2 367.67 93.2 367.67 99 368.43 99 368.43 93.94 369.28 97 370.04 97"/><path id="a" class="cls-7" d="M374.4,99.1c.8,0,1.25-.29,1.51-.74v.63h.71c-.02-.29-.06-.9-.06-1.62v-1.05c.02-1.19-.49-1.72-1.68-1.72-.9,0-1.71.52-1.78,1.45h.75c.05-.53.36-.86,1.02-.86.56,0,.97.22.97.97v.18c-1.76.19-2.85.5-2.85,1.53,0,.78.62,1.22,1.4,1.22ZM375.9,97.06c0,1.14-.64,1.46-1.3,1.46-.52,0-.82-.24-.82-.65,0-.62.8-.8,2.11-.93v.12Z"/><path id="n" class="cls-7" d="M379.06,94.7h-.74v4.3h.74v-2.34c0-.92.36-1.42,1.02-1.42.8,0,.86.58.86,1.27v2.48h.74v-2.74c0-.95-.31-1.64-1.35-1.64-.68,0-1.05.31-1.26.68v-.61Z"/><path id="i" class="cls-7" d="M384.87,93.2v.87h.74v-.87h-.74ZM383.65,94.7v.63h1.22v3.04h-1.22v.63h3.18v-.63h-1.22v-3.67h-1.95Z"/><path id="p" class="cls-7" d="M389.36,94.7h-.74v5.7h.74v-2.01c.24.41.63.71,1.27.71.99,0,1.74-.82,1.74-2.24s-.74-2.24-1.74-2.24c-.64,0-1.03.3-1.27.72v-.65ZM389.33,96.86c0-1.14.54-1.62,1.15-1.62.74,0,1.11.6,1.11,1.62s-.38,1.63-1.11,1.63c-.62,0-1.15-.5-1.15-1.63Z"/><path id="u" class="cls-7" d="M396.43,99h.74v-4.3h-.74v2.37c0,.92-.36,1.41-1.02,1.41-.8,0-.84-.57-.84-1.26v-2.51h-.74v2.77c0,.95.3,1.64,1.34,1.64.69,0,1.03-.29,1.26-.66v.55Z"/><polygon id="l" class="cls-7" points="399.11 93.2 399.11 93.82 400.32 93.82 400.32 98.37 399.11 98.37 399.11 99 402.28 99 402.28 98.37 401.06 98.37 401.06 93.2 399.11 93.2"/><path id="a-2" class="cls-7" d="M405.4,99.1c.8,0,1.25-.29,1.51-.74v.63h.71c-.02-.29-.06-.9-.06-1.62v-1.05c.02-1.19-.49-1.72-1.68-1.72-.9,0-1.71.52-1.78,1.45h.75c.05-.53.36-.86,1.02-.86.56,0,.97.22.97.97v.18c-1.76.19-2.85.5-2.85,1.53,0,.78.62,1.22,1.4,1.22ZM406.91,97.06c0,1.14-.64,1.46-1.3,1.46-.52,0-.82-.24-.82-.65,0-.62.8-.8,2.11-.93v.12Z"/><path id="t" class="cls-7" d="M410,94.7h-1.22v.63h1.22v2.59c0,.9.22,1.08,1.01,1.08h1.49v-.63h-1.33c-.41,0-.43-.11-.43-.55v-2.49h1.76v-.63h-1.76v-1.08h-.74v1.08Z"/><path id="e" class="cls-7" d="M416.2,99.1c1.01,0,1.68-.58,1.86-1.39h-.76c-.15.49-.47.79-1.11.79-.68,0-1.16-.57-1.16-1.43h3.1c.06-1.54-.66-2.46-1.92-2.46-1.14,0-1.95.86-1.95,2.25,0,1.27.65,2.24,1.95,2.24ZM416.2,95.22c.75,0,1.14.54,1.14,1.24h-2.3c.03-.83.47-1.24,1.17-1.24Z"/><path id="s" class="cls-7" d="M423,95.87c-.16-.77-.78-1.25-1.7-1.25-.72,0-1.62.36-1.62,1.19,0,.74.54,1.08,1.22,1.22l.54.1c.54.1.9.3.9.7,0,.5-.5.66-.96.66-.6,0-.9-.29-1-.78h-.78c.08.69.64,1.39,1.76,1.39.94,0,1.72-.45,1.72-1.36,0-.86-.8-1.14-1.54-1.29l-.48-.1c-.42-.09-.65-.24-.65-.58,0-.38.43-.55.86-.55.49,0,.86.16.96.64h.77Z"/></g><g id="Updates"><path id="U-2" class="cls-7" d="M207.04,93.2v3.44c0,1.81.5,2.46,1.94,2.46s1.96-.83,1.96-2.53v-3.38h-.76v3.44c0,1.14-.2,1.76-1.2,1.76s-1.18-.54-1.18-1.67v-3.53h-.76Z"/><path id="p-2" class="cls-7" d="M213.2,94.7h-.74v5.7h.74v-2.01c.24.41.63.71,1.27.71.99,0,1.74-.82,1.74-2.24s-.74-2.24-1.74-2.24c-.64,0-1.03.3-1.27.72v-.65ZM213.16,96.86c0-1.14.54-1.62,1.15-1.62.74,0,1.11.6,1.11,1.62s-.38,1.63-1.11,1.63c-.62,0-1.15-.5-1.15-1.63Z"/><path id="d" class="cls-7" d="M220.3,95.34c-.24-.42-.62-.72-1.27-.72-.99,0-1.74.82-1.74,2.24s.74,2.24,1.74,2.24c.65,0,1.03-.3,1.27-.71v.61h.74v-5.8h-.74v2.14ZM220.33,96.86c0,1.13-.54,1.63-1.15,1.63-.74,0-1.11-.61-1.11-1.63s.38-1.62,1.11-1.62c.62,0,1.15.49,1.15,1.62Z"/><path id="a-3" class="cls-7" d="M224.07,99.1c.8,0,1.25-.29,1.51-.74v.63h.71c-.02-.29-.06-.9-.06-1.62v-1.05c.02-1.19-.49-1.72-1.68-1.72-.9,0-1.71.52-1.78,1.45h.75c.05-.53.36-.86,1.02-.86.56,0,.97.22.97.97v.18c-1.76.19-2.85.5-2.85,1.53,0,.78.62,1.22,1.4,1.22ZM225.57,97.06c0,1.14-.64,1.46-1.3,1.46-.52,0-.82-.24-.82-.65,0-.62.8-.8,2.11-.93v.12Z"/><path id="t-2" class="cls-7" d="M228.66,94.7h-1.22v.63h1.22v2.59c0,.9.22,1.08,1.01,1.08h1.49v-.63h-1.33c-.41,0-.43-.11-.43-.55v-2.49h1.76v-.63h-1.76v-1.08h-.74v1.08Z"/><path id="e-2" class="cls-7" d="M234.86,99.1c1.01,0,1.68-.58,1.86-1.39h-.76c-.15.49-.47.79-1.11.79-.68,0-1.16-.57-1.16-1.43h3.1c.06-1.54-.66-2.46-1.92-2.46-1.14,0-1.95.86-1.95,2.25,0,1.27.65,2.24,1.95,2.24ZM234.86,95.22c.75,0,1.14.54,1.14,1.24h-2.3c.03-.83.47-1.24,1.17-1.24Z"/><path id="s-2" class="cls-7" d="M241.66,95.87c-.16-.77-.78-1.25-1.7-1.25-.72,0-1.62.36-1.62,1.19,0,.74.54,1.08,1.22,1.22l.54.1c.54.1.9.3.9.7,0,.5-.5.66-.96.66-.6,0-.9-.29-1-.78h-.78c.08.69.64,1.39,1.76,1.39.94,0,1.72-.45,1.72-1.36,0-.86-.8-1.14-1.54-1.29l-.48-.1c-.42-.09-.65-.24-.65-.58,0-.38.43-.55.86-.55.49,0,.86.16.96.64h.77Z"/></g><g id="Sees"><path id="S-2" class="cls-7" d="M216.28,213.26l.63.15c.63.14,1.09.42,1.09,1.02,0,.66-.59.97-1.17.97-.74,0-1.29-.43-1.37-1.21h-.75c.06,1.15.92,1.91,2.1,1.91s1.96-.65,1.96-1.73-.82-1.51-1.75-1.72l-.58-.13c-.46-.1-.84-.35-.84-.86,0-.6.55-.86,1.08-.86s1.13.23,1.22.93h.75c-.13-1.15-1.03-1.63-1.93-1.63-1.04,0-1.9.59-1.9,1.59,0,.92.7,1.41,1.46,1.58Z"/><path id="e-3" class="cls-7" d="M221.94,216.1c1.01,0,1.68-.58,1.86-1.39h-.76c-.15.49-.47.79-1.11.79-.68,0-1.16-.57-1.16-1.43h3.1c.06-1.54-.66-2.46-1.92-2.46-1.14,0-1.95.86-1.95,2.25,0,1.27.65,2.24,1.95,2.24ZM221.94,212.22c.75,0,1.14.54,1.14,1.24h-2.3c.03-.83.47-1.24,1.17-1.24Z"/><path id="e-4" class="cls-7" d="M227.11,216.1c1.01,0,1.68-.58,1.86-1.39h-.76c-.15.49-.47.79-1.11.79-.68,0-1.16-.57-1.16-1.43h3.1c.06-1.54-.66-2.46-1.92-2.46-1.14,0-1.95.86-1.95,2.25,0,1.27.65,2.24,1.95,2.24ZM227.11,212.22c.75,0,1.14.54,1.14,1.24h-2.3c.03-.83.47-1.24,1.17-1.24Z"/><path id="s-3" class="cls-7" d="M233.91,212.87c-.16-.77-.78-1.25-1.7-1.25-.72,0-1.62.36-1.62,1.19,0,.74.54,1.08,1.22,1.22l.54.1c.54.1.9.3.9.7,0,.5-.5.66-.96.66-.6,0-.9-.29-1-.78h-.78c.08.69.64,1.39,1.76,1.39.94,0,1.72-.45,1.72-1.36,0-.86-.8-1.14-1.54-1.29l-.48-.1c-.42-.09-.65-.24-.65-.58,0-.38.43-.55.86-.55.49,0,.86.16.96.64h.77Z"/></g><g id="Uses"><path id="U-3" class="cls-7" d="M385.8,210.2v3.44c0,1.81.5,2.46,1.94,2.46s1.96-.83,1.96-2.53v-3.38h-.76v3.44c0,1.14-.2,1.76-1.2,1.76s-1.18-.54-1.18-1.67v-3.53h-.76Z"/><path id="s-4" class="cls-7" d="M394.57,212.87c-.16-.77-.78-1.25-1.7-1.25-.72,0-1.62.36-1.62,1.19,0,.74.54,1.08,1.22,1.22l.54.1c.54.1.9.3.9.7,0,.5-.5.66-.96.66-.6,0-.9-.29-1-.78h-.78c.08.69.64,1.39,1.76,1.39.94,0,1.72-.45,1.72-1.36,0-.86-.8-1.14-1.54-1.29l-.48-.1c-.42-.09-.65-.24-.65-.58,0-.38.43-.55.86-.55.49,0,.86.16.96.64h.77Z"/><path id="e-5" class="cls-7" d="M398.11,216.1c1.01,0,1.68-.58,1.86-1.39h-.76c-.15.49-.47.79-1.11.79-.68,0-1.16-.57-1.16-1.43h3.1c.06-1.54-.66-2.46-1.92-2.46-1.14,0-1.95.86-1.95,2.25,0,1.27.65,2.24,1.95,2.24ZM398.11,212.22c.75,0,1.14.54,1.14,1.24h-2.3c.03-.83.47-1.24,1.17-1.24Z"/><path id="s-5" class="cls-7" d="M404.91,212.87c-.16-.77-.78-1.25-1.7-1.25-.72,0-1.62.36-1.62,1.19,0,.74.54,1.08,1.22,1.22l.54.1c.54.1.9.3.9.7,0,.5-.5.66-.96.66-.6,0-.9-.29-1-.78h-.78c.08.69.64,1.39,1.76,1.39.94,0,1.72-.45,1.72-1.36,0-.86-.8-1.14-1.54-1.29l-.48-.1c-.42-.09-.65-.24-.65-.58,0-.38.43-.55.86-.55.49,0,.86.16.96.64h.77Z"/></g><g id="Group-2"><path id="Shape-4" class="cls-1" d="M345,252.73h43.57c3.79,0,6.89-3.1,6.89-6.89v-21.56M395.47,202.73v-17.88"/><polyline id="Stroke-3-5" class="cls-1" points="401.5 190.03 395.47 184 389.44 190.03"/></g></g></svg>